<?xml version="1.0" encoding="utf-8"?>
<!-- Generator: Adobe Illustrator 19.2.1, SVG Export Plug-In . SVG Version: 6.00 Build 0)  -->
<svg version="1.1" id="layer" xmlns="http://www.w3.org/2000/svg" xmlns:xlink="http://www.w3.org/1999/xlink" x="0px" y="0px"
	 viewBox="0 0 652 652" style="enable-background:new 0 0 652 652;" xml:space="preserve">
<style type="text/css">
	.st0{fill:#112038;}
</style>
<g>
	<path class="st0" d="M599.5,364.5l-1.2,2.4c-2.8,5.1-4,7.1-8,12.5c-5.1,0.7-7.3,0.9-11.3,0.9c-12.8,0-34-4.7-50.8-11.2L499.1,358
		c-19.6-7.4-37.6-11.7-50.6-11.7c-11,0-30.1,4.1-43.5,9.1l-36.2,13.7c-17,6.7-38,11.2-50.6,11.2c-12.7,0-33.6-4.5-50.7-11.2
		l-36.2-13.7c-13.3-5-32.5-9.1-43.5-9.1c-12.9,0-31,4.3-50.7,11.7l-29,11.1c-16.8,6.5-38,11.2-50.9,11.2c-4.1,0-6.1-0.2-11.1-0.9
		c-3.8-4.8-5.2-7.2-8-12.5l-1.2-2.4c9.8,1.8,15.3,2.6,20.7,2.6c12.8,0,31.3-4.3,50.6-11.9l29-11.1c15.4-5.9,38.3-10.7,50.7-10.7
		c12.5,0,35.3,4.8,50.6,10.7l29.1,11.1c19.3,7.6,37.7,11.9,50.6,11.9c13,0,31.4-4.3,50.7-11.9l29-11.1c15.2-5.9,38.1-10.7,50.5-10.7
		c12.5,0,35.4,4.8,50.7,10.7l29.1,11.1c19.3,7.6,37.7,11.9,50.6,11.9C584.2,367.2,589.6,366.4,599.5,364.5L599.5,364.5z
		 M553.3,401.5c-4.4,4.6-5.6,5.7-10.6,9.6l-23.2-8.1l-26.8-9c-20.3-7-34-10-45.8-10c-10.6,0-30,4-42.9,9l-35.7,13.9
		c-16.7,6.5-37.5,10.9-50.2,11.1c-12.7,0-33.5-4.6-50.2-11.1l-35.8-13.9c-12.8-5-32.2-9-42.9-9c-11.7,0-25.4,2.9-45.8,10l-26.7,9
		l-23.1,8.1c-5-3.9-6.1-5-10.6-9.6l41.6-14.8c18.3-6.5,26.1-8.9,36-11.5c10.4-2.6,21.1-4.3,28.7-4.3c12.2,0,35.2,5,50.1,10.7
		l28.6,11.3c19.4,7.6,37.1,11.7,50.2,11.7c13,0,30.8-4.2,50.2-11.7l28.7-11.3c14.7-5.8,37.8-10.7,49.9-10.7c7.6,0,18.2,1.7,28.8,4.3
		c10.1,2.6,17.3,4.8,36,11.5L553.3,401.5L553.3,401.5z M507.3,423.1l-14.4,8.7l-3.3-1.1c-16.7-5.9-31.2-9.1-42.3-9.1
		c-11.3,0-24.8,2.8-43,9.1l-7.1,2.6l-7.3,2.8l-7.1,2.8l-7.2,2.8l-7.1,2.8l-7.2,2.4c-15.1,5.4-32,8.7-42.9,8.7
		c-12.8,0-28.7-3.5-50.2-11.1l-7.2-2.8l-7.2-2.8l-7.2-2.8l-7.3-2.8l-7.1-2.6l-7.2-2.4c-11.9-4.1-26.5-6.7-35.7-6.7
		c-11.1,0-25.6,3.1-42.4,9.1l-3.2,1.1l-14.4-8.7c3.6-1.5,4.7-1.8,9.7-3.7l7.2-2.4c14.3-5,32.3-8.5,43-8.5c12.7,0,29.3,3.7,50.1,10.9
		l7.3,2.8l7.2,2.8l7.2,2.8l7.2,2.8l7.2,2.5c15.4,5.5,31.9,9.1,42.9,9.1c12.9,0,28.5-3.5,50.3-11.6l7.1-2.8l7.2-2.8l7.1-2.8
		c1.2-0.5,3.6-1.5,7.3-2.8l7.1-2.4c14.4-5,32.3-8.5,43-8.5c12.7,0,29.4,3.7,50.2,10.9l7.3,2.8L507.3,423.1L507.3,423.1z
		 M104.8,247.2v33c-7.4,3-14.8,4.7-22,4.7c-19,0-32.2-15.1-32.2-36.3c0-22.8,15.9-38.9,38.6-38.9c12.8,0,25.4,3.7,40.6,11.8v-22
		c-19.5-8.1-29.1-10.5-43.6-10.5c-39.9,0-65.4,23.1-65.4,59.3c0,34.4,24.8,57.2,61.9,57.2c16.5,0,36.2-5.4,50.6-14v-44.4H104.8
		 M149.5,189.1v116.5H179v-94.5h12.7c16.7,0,24.2,5.4,24.2,17.6c0,12.5-8.4,19.7-23.1,19.7l-6.4-0.2h-3.3l41.1,57.4H262l-37.7-46.8
		c14.1-6.6,21.5-18.1,21.5-33.2c0-24.8-15.5-36.6-48-36.6L149.5,189.1 M406.6,189.1v116.5h27v-49.9h47.7v49.9h27V189.1h-27v43h-47.7
		v-43.1 M535.2,189.1v116.5h85.7v-22.8h-56v-27.8h41.2v-21.9h-41.2v-21.3h49.5v-22.8 M290.7,247.4c0-22.3,14.5-38,35.5-38
		c20.9,0,35.5,15.7,35.5,38c0,22.3-14.6,37.9-35.5,37.9C305.3,285.3,290.7,269.7,290.7,247.4 M262,247.4c0,33.6,27.1,58.3,64.3,58.3
		c37.1,0,64.3-24.6,64.3-58.3c-0.1-33.6-27.2-58.3-64.3-58.3C289.1,189.1,262,213.7,262,247.4"/>
</g>
</svg>
