<svg xmlns="http://www.w3.org/2000/svg" xmlns:xlink="http://www.w3.org/1999/xlink" viewBox="0 0 132 53" shape-rendering="geometricPrecision">
    <g>
        <path fill-rule="evenodd" fill="rgb(0, 0, 0)" d="M66.000,53.005 C29.548,53.005 -0.001,41.139 -0.001,26.500 C-0.001,11.862 29.548,-0.005 66.000,-0.005 C102.451,-0.005 132.000,11.862 132.000,26.500 C132.000,41.139 102.451,53.005 66.000,53.005 ZM66.000,2.475 C34.307,2.475 8.614,13.232 8.614,26.500 C8.614,39.770 34.307,50.526 66.000,50.526 C97.691,50.526 123.385,39.770 123.385,26.500 C123.385,13.232 97.691,2.475 66.000,2.475 ZM114.476,34.987 C113.587,34.987 112.866,34.317 112.866,33.486 C112.866,32.653 113.587,31.984 114.476,31.984 C115.363,31.984 116.079,32.653 116.079,33.486 C116.079,34.317 115.363,34.987 114.476,34.987 ZM114.476,32.282 C113.762,32.282 113.184,32.819 113.184,33.486 C113.184,34.152 113.762,34.691 114.476,34.691 C115.187,34.691 115.763,34.152 115.763,33.486 C115.763,32.819 115.187,32.282 114.476,32.282 ZM114.666,33.587 L114.666,33.594 C114.828,33.650 114.879,33.726 115.027,33.966 L115.230,34.287 L114.801,34.287 L114.660,34.026 C114.459,33.659 114.349,33.634 114.178,33.634 L114.088,33.634 L114.088,34.287 L113.746,34.287 L113.746,32.694 L114.088,32.694 C114.716,32.694 114.814,32.694 114.947,32.787 C115.067,32.871 115.126,33.008 115.126,33.140 C115.126,33.316 115.017,33.543 114.666,33.587 ZM114.231,32.948 L114.088,32.948 L114.088,33.382 L114.231,33.382 C114.538,33.382 114.758,33.382 114.758,33.160 C114.758,32.948 114.530,32.948 114.231,32.948 ZM102.931,34.115 L104.114,34.115 L104.114,21.421 L102.942,21.421 L102.924,20.647 L108.605,20.647 C109.866,20.647 110.736,19.726 110.736,19.726 L111.221,20.287 L111.215,20.313 C110.591,21.013 110.105,21.102 110.105,21.102 L110.105,34.132 L111.279,34.132 L111.279,34.888 L102.931,34.888 L102.931,34.115 ZM107.131,19.228 C105.009,19.228 103.286,18.068 103.286,16.638 C103.286,15.208 105.009,14.047 107.131,14.047 C109.254,14.047 110.978,15.208 110.978,16.638 C110.978,18.068 109.254,19.228 107.131,19.228 ZM96.201,34.121 C96.201,34.121 100.178,34.322 100.178,29.460 L100.952,29.460 L100.952,34.973 L89.819,34.973 L94.896,21.692 C94.896,21.692 90.802,21.440 90.802,25.785 L90.056,25.785 L90.056,20.670 L101.203,20.670 L96.320,33.798 L96.201,34.121 ZM83.030,34.121 C83.030,34.121 87.006,34.322 87.006,29.460 L87.778,29.460 L87.778,34.973 L76.644,34.973 L81.723,21.692 C81.723,21.692 77.629,21.440 77.629,25.785 L76.884,25.785 L76.884,20.670 L88.031,20.670 L83.149,33.798 L83.030,34.121 ZM66.768,35.471 C63.066,35.099 62.751,34.117 62.382,32.608 L62.382,21.446 L61.190,21.446 L61.190,20.689 L67.855,20.689 L67.855,32.787 C67.853,33.637 69.612,33.553 69.655,32.905 L69.655,20.715 L74.984,20.731 L74.984,31.798 C68.322,36.057 66.768,35.471 66.768,35.471 ZM57.902,27.498 C56.571,27.498 55.406,26.620 55.412,24.863 C55.412,23.734 56.183,22.526 57.411,22.444 C57.411,22.444 57.620,21.442 56.289,21.442 C56.289,21.442 54.726,21.209 54.271,23.153 L54.271,32.402 C54.271,32.402 54.043,34.220 56.289,34.220 C56.289,34.220 57.928,34.436 60.112,32.660 L60.112,33.721 C58.719,34.973 57.202,35.474 55.527,35.474 C51.834,35.474 48.490,32.382 48.490,27.913 C48.490,23.949 51.601,20.397 55.529,20.397 C57.124,20.397 58.071,20.785 59.047,21.566 C59.803,22.137 60.438,23.112 60.438,24.824 C60.438,26.183 59.273,27.498 57.902,27.498 ZM41.753,34.220 C40.039,35.376 38.942,35.235 37.703,35.139 C35.240,34.948 32.793,31.505 32.793,28.083 C32.793,24.579 34.797,21.541 38.114,20.731 C39.809,20.317 40.624,20.646 41.753,21.734 L41.753,20.898 L48.142,20.881 L48.142,21.631 L46.955,21.631 L46.955,34.270 L48.175,34.270 L48.175,35.054 L41.753,35.054 L41.753,34.220 ZM41.795,23.947 C41.795,23.024 40.963,22.362 40.081,22.241 L39.995,22.235 C39.092,22.235 38.358,22.982 38.358,23.905 L38.358,32.093 C38.358,33.012 39.062,33.837 39.979,33.770 L40.075,33.761 C41.048,33.631 41.795,33.055 41.795,32.132 L41.795,23.947 ZM31.284,33.252 C31.284,33.252 26.241,36.663 20.737,36.324 L20.671,36.318 C20.564,36.312 20.490,36.299 20.368,36.299 C18.511,36.318 17.005,34.747 17.005,32.832 C17.005,30.915 18.511,29.363 20.368,29.363 C22.225,29.363 23.730,30.915 23.730,32.832 C23.730,33.599 23.489,34.307 23.079,34.880 L23.078,34.892 C24.200,35.792 24.780,35.119 24.897,35.000 L24.897,17.144 L23.694,17.144 L23.694,16.394 L32.482,16.394 L32.482,17.127 L31.284,17.127 L31.284,33.252 Z"/>
    </g>
</svg>
