<?xml version="1.0" encoding="UTF-8" standalone="no"?>
<!-- Created with Inkscape (http://www.inkscape.org/) -->

<svg
   xmlns:dc="http://purl.org/dc/elements/1.1/"
   xmlns:cc="http://creativecommons.org/ns#"
   xmlns:rdf="http://www.w3.org/1999/02/22-rdf-syntax-ns#"
   xmlns:svg="http://www.w3.org/2000/svg"
   xmlns="http://www.w3.org/2000/svg"
   xmlns:sodipodi="http://sodipodi.sourceforge.net/DTD/sodipodi-0.dtd"
   xmlns:inkscape="http://www.inkscape.org/namespaces/inkscape"
   width="315.90811"
   height="71.193321"
   viewBox="0 0 83.584021 18.836566"
   version="1.1"
   id="svg5970"
   inkscape:version="0.92.0 r15299"
   sodipodi:docname="moen.svg">
  <defs
     id="defs5964" />
  <sodipodi:namedview
     id="base"
     pagecolor="#ffffff"
     bordercolor="#666666"
     borderopacity="1.0"
     inkscape:pageopacity="0.0"
     inkscape:pageshadow="2"
     inkscape:zoom="2.857524"
     inkscape:cx="157.95406"
     inkscape:cy="35.596661"
     inkscape:document-units="mm"
     inkscape:current-layer="layer1"
     showgrid="false"
     fit-margin-top="0"
     fit-margin-left="0"
     fit-margin-right="0"
     fit-margin-bottom="0"
     units="px"
     inkscape:window-width="1280"
     inkscape:window-height="744"
     inkscape:window-x="-4"
     inkscape:window-y="-4"
     inkscape:window-maximized="1" />
  <metadata
     id="metadata5967">
    <rdf:RDF>
      <cc:Work
         rdf:about="">
        <dc:format>image/svg+xml</dc:format>
        <dc:type
           rdf:resource="http://purl.org/dc/dcmitype/StillImage" />
        <dc:title></dc:title>
      </cc:Work>
    </rdf:RDF>
  </metadata>
  <g
     inkscape:label="Layer 1"
     inkscape:groupmode="layer"
     id="layer1"
     transform="translate(-61.282093,-121.76357)">
    <g
       id="g5991"
       transform="translate(0.26458209,-0.2645759)">
      <path
         d="m 76.610603,122.58476 -5.44795,8.06238 h -0.0377 l -5.70125,-8.06238 h -4.14161 v 17.65194 h 4.82283 l 0.007,-10.20727 h 0.037 l 3.95887,5.81201 h 2.17946 l 3.84916,-5.88327 h 0.0374 l -0.006,10.27853 h 4.83694 v -17.65194 z"
         style="fill:#5d7e95;fill-opacity:1;fill-rule:nonzero;stroke:none;stroke-width:0.35277778"
         id="path5826"
         inkscape:connector-curvature="0" />
      <path
         d="m 99.930024,138.45736 c -1.59879,1.38007 -3.777541,2.14277 -6.39304,2.14277 -2.542471,0 -4.648901,-0.72743 -6.247691,-2.03341 -1.96251,-1.59914 -3.08716,-4.06964 -3.08716,-7.11976 0,-2.90618 1.08797,-5.37633 3.01448,-7.01111 1.597381,-1.34337 3.7779,-2.14312 6.39269,-2.14312 2.68746,0 4.940652,0.83538 6.538377,2.28917 1.77977,1.63513 2.76014,3.99486 2.76014,6.86506 0,2.94146 -1.05304,5.41126 -2.977796,7.0104 m -6.39304,-12.42307 c -2.72415,0 -4.32258,2.0694 -4.32258,5.41267 0,3.34116 1.634768,5.37457 4.32258,5.37457 2.724499,0 4.285549,-2.03341 4.285549,-5.37457 0,-3.34327 -1.598441,-5.41267 -4.285549,-5.41267"
         style="fill:#5d7e95;fill-opacity:1;fill-rule:nonzero;stroke:none;stroke-width:0.35277778"
         id="path5838"
         inkscape:connector-curvature="0" />
      <path
         d="m 116.96545,126.21703 h -6.06707 v 3.34045 h 6.06707 v 3.45193 h -6.06707 v 3.59551 h 6.93808 v 3.63185 h -11.73233 v -17.65194 h 12.05935 z"
         style="fill:#5d7e95;fill-opacity:1;fill-rule:nonzero;stroke:none;stroke-width:0.35277778"
         id="path5842"
         inkscape:connector-curvature="0" />
      <path
         d="m 135.16321,140.23681 -8.31885,-10.86026 h -0.0367 l -0.006,10.86026 h -4.7879 v -17.65194 h 4.72264 l 8.02675,10.53218 h 0.0356 l 0.006,-10.53218 h 4.82424 v 17.65194 z"
         style="fill:#5d7e95;fill-opacity:1;fill-rule:nonzero;stroke:none;stroke-width:0.35277778"
         id="path5846"
         inkscape:connector-curvature="0" />
      <path
         d="m 142.61751,124.16164 c 0.22507,0 0.37747,-0.0875 0.37747,-0.27587 0,-0.16545 -0.1337,-0.27094 -0.32667,-0.27094 h -0.47378 v 0.54681 z m -0.7172,-0.79516 h 0.80434 c 0.45085,0 0.60219,0.28046 0.60219,0.47801 0,0.29422 -0.21132,0.50589 -0.51894,0.52388 v 0.009 c 0.15628,0.0554 0.27093,0.21167 0.42298,0.45508 l 0.22014,0.35419 h -0.35772 l -0.16122,-0.28504 c -0.23001,-0.40922 -0.3175,-0.48719 -0.54257,-0.48719 h -0.17498 v 0.77223 h -0.29422 z m 0.74013,-0.52881 c -0.7814,0 -1.41076,0.63006 -1.41076,1.41146 0,0.78105 0.62936,1.4157 1.41076,1.4157 0.78176,0 1.41605,-0.63465 1.41605,-1.4157 0,-0.7814 -0.63429,-1.41146 -1.41605,-1.41146 m 0,3.10761 c -0.93768,0 -1.69122,-0.75847 -1.69122,-1.69615 0,-0.93768 0.75354,-1.69192 1.69122,-1.69192 0.93804,0 1.69651,0.75424 1.69651,1.69192 0,0.93768 -0.75847,1.69615 -1.69651,1.69615"
         style="fill:#5d7e95;fill-opacity:1;fill-rule:nonzero;stroke:none;stroke-width:0.35277778"
         id="path5850"
         inkscape:connector-curvature="0" />
    </g>
  </g>
</svg>
